<svg xmlns="http://www.w3.org/2000/svg" width="40" height="40" viewBox="0 0 40 40">
  <g id="p-aaa-invoicing" transform="translate(-0.508 0.469)">
    <path id="Path_515" d="M33.008,39.531h-25a7.5,7.5,0,0,1-7.5-7.5v-25a7.5,7.5,0,0,1,7.5-7.5h25a7.5,7.5,0,0,1,7.5,7.5v25A7.5,7.5,0,0,1,33.008,39.531Z" fill="#dedede"/>
    <path id="Path_516" d="M27.3,8.594H13.719a2.771,2.771,0,0,0-2.766,2.766V27.7a2.771,2.771,0,0,0,2.766,2.766H27.3A2.771,2.771,0,0,0,30.063,27.7V11.359A2.771,2.771,0,0,0,27.3,8.594ZM15.984,14.375h5.031a1.008,1.008,0,0,1,0,2.016H15.984a1.008,1.008,0,0,1,0-2.016ZM26.039,24.438H15.984a1.008,1.008,0,0,1,0-2.016H26.039a1.008,1.008,0,0,1,0,2.016Zm0-4.023H15.984a1.008,1.008,0,0,1,0-2.016H26.039a1.008,1.008,0,0,1,0,2.016Z" fill="#424242"/>
  </g>
</svg>
